<svg xmlns="http://www.w3.org/2000/svg" xmlns:xlink="http://www.w3.org/1999/xlink" width="96" zoomAndPan="magnify" viewBox="0 0 72 72" height="96" preserveAspectRatio="xMidYMid meet" version="1.0"><defs><clipPath id="25a3b4aef7"><path d="M 6.570312 0 L 65.070312 0 L 65.070312 31 L 6.570312 31 Z M 6.570312 0 " clip-rule="nonzero"/></clipPath></defs><path fill="#ed5e1b" d="M 63.328125 44.3125 C 63.328125 45.21875 63.285156 46.121094 63.195312 47.023438 C 63.109375 47.925781 62.976562 48.820312 62.800781 49.707031 C 62.625 50.597656 62.40625 51.472656 62.144531 52.339844 C 61.882812 53.207031 61.582031 54.0625 61.234375 54.898438 C 60.890625 55.734375 60.507812 56.554688 60.082031 57.351562 C 59.65625 58.152344 59.195312 58.925781 58.695312 59.679688 C 58.195312 60.433594 57.660156 61.160156 57.085938 61.863281 C 56.515625 62.5625 55.910156 63.234375 55.273438 63.875 C 54.636719 64.515625 53.972656 65.121094 53.273438 65.695312 C 52.578125 66.269531 51.855469 66.808594 51.109375 67.3125 C 50.359375 67.816406 49.585938 68.28125 48.792969 68.710938 C 48 69.136719 47.183594 69.523438 46.351562 69.871094 C 45.519531 70.21875 44.675781 70.523438 43.8125 70.785156 C 42.949219 71.046875 42.078125 71.269531 41.195312 71.445312 C 40.3125 71.621094 39.421875 71.753906 38.523438 71.84375 C 37.628906 71.933594 36.730469 71.976562 35.828125 71.976562 C 34.929688 71.976562 34.03125 71.933594 33.132812 71.84375 C 32.238281 71.753906 31.347656 71.621094 30.464844 71.445312 C 29.582031 71.269531 28.707031 71.046875 27.847656 70.785156 C 26.984375 70.523438 26.136719 70.21875 25.304688 69.871094 C 24.472656 69.523438 23.660156 69.136719 22.867188 68.710938 C 22.070312 68.28125 21.300781 67.816406 20.550781 67.3125 C 19.800781 66.808594 19.078125 66.269531 18.382812 65.695312 C 17.6875 65.121094 17.019531 64.515625 16.382812 63.875 C 15.746094 63.234375 15.140625 62.5625 14.570312 61.863281 C 14 61.160156 13.464844 60.433594 12.964844 59.679688 C 12.464844 58.925781 12 58.152344 11.574219 57.351562 C 11.152344 56.554688 10.765625 55.734375 10.421875 54.898438 C 10.078125 54.0625 9.773438 53.207031 9.511719 52.339844 C 9.25 51.472656 9.03125 50.597656 8.855469 49.707031 C 8.679688 48.820312 8.550781 47.925781 8.460938 47.023438 C 8.371094 46.121094 8.328125 45.21875 8.328125 44.3125 C 8.328125 43.40625 8.371094 42.5 8.460938 41.597656 C 8.550781 40.699219 8.679688 39.800781 8.855469 38.914062 C 9.03125 38.023438 9.25 37.148438 9.511719 36.28125 C 9.773438 35.414062 10.078125 34.5625 10.421875 33.722656 C 10.765625 32.886719 11.152344 32.070312 11.574219 31.269531 C 12 30.46875 12.464844 29.695312 12.964844 28.941406 C 13.464844 28.1875 14 27.460938 14.570312 26.761719 C 15.140625 26.058594 15.746094 25.390625 16.382812 24.75 C 17.019531 24.109375 17.6875 23.5 18.382812 22.925781 C 19.078125 22.351562 19.800781 21.8125 20.550781 21.308594 C 21.300781 20.804688 22.070312 20.339844 22.867188 19.910156 C 23.660156 19.484375 24.472656 19.097656 25.304688 18.75 C 26.136719 18.40625 26.984375 18.097656 27.847656 17.835938 C 28.707031 17.574219 29.582031 17.351562 30.464844 17.175781 C 31.347656 17 32.238281 16.867188 33.132812 16.777344 C 34.03125 16.691406 34.929688 16.644531 35.828125 16.644531 C 36.730469 16.644531 37.628906 16.691406 38.523438 16.777344 C 39.421875 16.867188 40.3125 17 41.195312 17.175781 C 42.078125 17.351562 42.949219 17.574219 43.8125 17.835938 C 44.675781 18.097656 45.519531 18.40625 46.351562 18.75 C 47.183594 19.097656 48 19.484375 48.792969 19.910156 C 49.585938 20.339844 50.359375 20.804688 51.109375 21.308594 C 51.855469 21.8125 52.578125 22.351562 53.273438 22.925781 C 53.972656 23.5 54.636719 24.109375 55.273438 24.75 C 55.910156 25.390625 56.515625 26.058594 57.085938 26.761719 C 57.660156 27.460938 58.195312 28.1875 58.695312 28.941406 C 59.195312 29.695312 59.65625 30.46875 60.082031 31.269531 C 60.507812 32.070312 60.890625 32.886719 61.234375 33.722656 C 61.582031 34.5625 61.882812 35.414062 62.144531 36.28125 C 62.40625 37.148438 62.625 38.023438 62.800781 38.914062 C 62.976562 39.800781 63.109375 40.699219 63.195312 41.597656 C 63.285156 42.5 63.328125 43.40625 63.328125 44.3125 Z M 63.328125 44.3125 " fill-opacity="1" fill-rule="nonzero"/><path fill="#36384e" d="M 45.859375 37.703125 C 43.238281 37.703125 41.109375 39.867188 41.109375 42.542969 C 41.109375 45.21875 43.238281 47.386719 45.859375 47.386719 C 48.484375 47.386719 50.609375 45.21875 50.609375 42.542969 C 50.609375 39.867188 48.484375 37.703125 45.859375 37.703125 Z M 24.355469 37.703125 C 26.980469 37.703125 29.105469 39.867188 29.105469 42.542969 C 29.105469 45.21875 26.980469 47.386719 24.355469 47.386719 C 21.734375 47.386719 19.609375 45.21875 19.609375 42.542969 C 19.609375 39.867188 21.734375 37.703125 24.355469 37.703125 Z M 24.355469 37.703125 " fill-opacity="1" fill-rule="evenodd"/><path fill="#571502" d="M 29.308594 51.839844 C 26.253906 51.222656 27.070312 49.996094 28.292969 48.972656 C 29.515625 47.945312 31.144531 47.128906 32.976562 46.71875 C 34.808594 46.308594 36.847656 46.308594 38.683594 46.71875 C 40.515625 47.128906 42.144531 47.945312 43.367188 48.972656 C 44.589844 49.996094 45.402344 51.222656 42.347656 51.839844 C 39.292969 52.457031 32.367188 52.457031 29.308594 51.839844 Z M 29.308594 51.839844 " fill-opacity="1" fill-rule="evenodd"/><path fill="#aa3a00" d="M 16.371094 36.445312 C 15.628906 36.160156 15.253906 35.320312 15.539062 34.574219 C 15.820312 33.824219 16.652344 33.449219 17.394531 33.734375 L 17.527344 33.785156 C 19.496094 34.582031 21.472656 35.375 23.574219 35.949219 C 24.683594 36.246094 25.820312 36.496094 26.957031 36.714844 L 28.886719 37.066406 L 28.886719 32.628906 C 28.886719 31.828125 29.535156 31.179688 30.328125 31.179688 C 31.125 31.179688 31.769531 31.828125 31.769531 32.628906 L 31.769531 38.777344 L 31.746094 39.015625 C 31.617188 39.800781 30.875 40.335938 30.09375 40.203125 C 28.859375 40 27.621094 39.792969 26.417969 39.558594 C 25.164062 39.316406 23.953125 39.050781 22.824219 38.742188 C 20.523438 38.105469 18.484375 37.289062 16.457031 36.472656 Z M 53.847656 36.445312 C 54.589844 36.160156 54.960938 35.320312 54.679688 34.574219 C 54.398438 33.824219 53.5625 33.449219 52.820312 33.734375 L 52.691406 33.785156 C 50.722656 34.582031 48.742188 35.375 46.644531 35.949219 C 45.535156 36.246094 44.398438 36.496094 43.261719 36.714844 L 41.332031 37.066406 L 41.332031 32.628906 C 41.332031 31.828125 40.683594 31.179688 39.890625 31.179688 C 39.09375 31.179688 38.449219 31.828125 38.449219 32.628906 L 38.449219 38.777344 L 38.46875 39.015625 C 38.597656 39.800781 39.34375 40.335938 40.125 40.203125 C 41.359375 40 42.59375 39.792969 43.800781 39.558594 C 45.050781 39.316406 46.265625 39.050781 47.394531 38.742188 C 49.695312 38.105469 51.734375 37.289062 53.761719 36.472656 Z M 53.847656 36.445312 " fill-opacity="1" fill-rule="nonzero"/><g clip-path="url(#25a3b4aef7)"><path fill="#fac959" d="M 6.578125 16.660156 C 8.113281 15.769531 9.648438 14.878906 11.1875 13.984375 C 13.449219 16.261719 15.714844 18.539062 17.976562 20.816406 C 16.972656 21.402344 15.96875 21.984375 14.960938 22.566406 C 17.585938 25.207031 20.210938 27.851562 22.832031 30.488281 C 18.378906 27.902344 13.921875 25.3125 9.464844 22.722656 C 10.734375 21.984375 12.011719 21.242188 13.285156 20.503906 C 11.050781 19.222656 8.8125 17.941406 6.578125 16.660156 Z M 36.242188 0.0273438 C 34.058594 5.585938 31.871094 11.148438 29.6875 16.707031 C 31.796875 16.328125 33.90625 15.949219 36.019531 15.570312 C 36.019531 19.363281 36.019531 23.15625 36.019531 26.945312 C 38.003906 21.5625 39.988281 16.175781 41.972656 10.792969 C 40.09375 11.300781 38.210938 11.808594 36.332031 12.3125 C 36.300781 8.21875 36.273438 4.121094 36.242188 0.0273438 Z M 65.082031 16.660156 C 63.542969 15.769531 62.007812 14.878906 60.472656 13.984375 C 58.207031 16.261719 55.945312 18.539062 53.679688 20.816406 C 54.6875 21.402344 55.691406 21.984375 56.695312 22.566406 C 54.074219 25.207031 51.449219 27.851562 48.824219 30.488281 C 53.28125 27.902344 57.738281 25.3125 62.195312 22.722656 C 60.921875 21.984375 59.648438 21.242188 58.375 20.503906 C 60.609375 19.222656 62.84375 17.941406 65.082031 16.660156 Z M 65.082031 16.660156 " fill-opacity="1" fill-rule="evenodd"/></g></svg>