<svg xmlns="http://www.w3.org/2000/svg" xmlns:xlink="http://www.w3.org/1999/xlink" width="96" zoomAndPan="magnify" viewBox="0 0 72 72" height="96" preserveAspectRatio="xMidYMid meet" version="1.0"><path fill="#fac959" d="M 72 36 C 72 37.179688 71.941406 38.355469 71.828125 39.527344 C 71.710938 40.703125 71.539062 41.867188 71.308594 43.023438 C 71.078125 44.179688 70.792969 45.320312 70.449219 46.449219 C 70.109375 47.578125 69.710938 48.6875 69.257812 49.777344 C 68.808594 50.867188 68.304688 51.929688 67.75 52.96875 C 67.195312 54.011719 66.589844 55.019531 65.933594 56 C 65.277344 56.980469 64.578125 57.925781 63.828125 58.839844 C 63.082031 59.75 62.289062 60.621094 61.457031 61.457031 C 60.621094 62.289062 59.75 63.082031 58.839844 63.828125 C 57.925781 64.578125 56.980469 65.277344 56 65.933594 C 55.019531 66.589844 54.011719 67.195312 52.96875 67.75 C 51.929688 68.304688 50.867188 68.808594 49.777344 69.257812 C 48.6875 69.710938 47.578125 70.109375 46.449219 70.449219 C 45.320312 70.792969 44.179688 71.078125 43.023438 71.308594 C 41.867188 71.539062 40.703125 71.710938 39.527344 71.828125 C 38.355469 71.941406 37.179688 72 36 72 C 34.820312 72 33.644531 71.941406 32.472656 71.828125 C 31.296875 71.710938 30.132812 71.539062 28.976562 71.308594 C 27.820312 71.078125 26.679688 70.792969 25.550781 70.449219 C 24.421875 70.109375 23.3125 69.710938 22.222656 69.257812 C 21.132812 68.808594 20.070312 68.304688 19.03125 67.75 C 17.988281 67.195312 16.980469 66.589844 16 65.933594 C 15.019531 65.277344 14.074219 64.578125 13.160156 63.828125 C 12.25 63.082031 11.378906 62.289062 10.542969 61.457031 C 9.710938 60.621094 8.917969 59.75 8.171875 58.839844 C 7.421875 57.925781 6.722656 56.980469 6.066406 56 C 5.410156 55.019531 4.804688 54.011719 4.25 52.96875 C 3.695312 51.929688 3.191406 50.867188 2.742188 49.777344 C 2.289062 48.6875 1.890625 47.578125 1.550781 46.449219 C 1.207031 45.320312 0.921875 44.179688 0.691406 43.023438 C 0.460938 41.867188 0.289062 40.703125 0.171875 39.527344 C 0.0585938 38.355469 0 37.179688 0 36 C 0 34.820312 0.0585938 33.644531 0.171875 32.472656 C 0.289062 31.296875 0.460938 30.132812 0.691406 28.976562 C 0.921875 27.820312 1.207031 26.679688 1.550781 25.550781 C 1.890625 24.421875 2.289062 23.3125 2.742188 22.222656 C 3.191406 21.132812 3.695312 20.070312 4.25 19.03125 C 4.804688 17.988281 5.410156 16.980469 6.066406 16 C 6.722656 15.019531 7.421875 14.074219 8.171875 13.160156 C 8.917969 12.25 9.710938 11.378906 10.542969 10.542969 C 11.378906 9.710938 12.25 8.917969 13.160156 8.171875 C 14.074219 7.421875 15.019531 6.722656 16 6.066406 C 16.980469 5.410156 17.988281 4.804688 19.03125 4.25 C 20.070312 3.695312 21.132812 3.191406 22.222656 2.742188 C 23.3125 2.289062 24.421875 1.890625 25.550781 1.550781 C 26.679688 1.207031 27.820312 0.921875 28.976562 0.691406 C 30.132812 0.460938 31.296875 0.289062 32.472656 0.171875 C 33.644531 0.0585938 34.820312 0 36 0 C 37.179688 0 38.355469 0.0585938 39.527344 0.171875 C 40.703125 0.289062 41.867188 0.460938 43.023438 0.691406 C 44.179688 0.921875 45.320312 1.207031 46.449219 1.550781 C 47.578125 1.890625 48.6875 2.289062 49.777344 2.742188 C 50.867188 3.191406 51.929688 3.695312 52.96875 4.25 C 54.011719 4.804688 55.019531 5.410156 56 6.066406 C 56.980469 6.722656 57.925781 7.421875 58.839844 8.171875 C 59.75 8.917969 60.621094 9.710938 61.457031 10.542969 C 62.289062 11.378906 63.082031 12.25 63.828125 13.160156 C 64.578125 14.074219 65.277344 15.019531 65.933594 16 C 66.589844 16.980469 67.195312 17.988281 67.75 19.03125 C 68.304688 20.070312 68.808594 21.132812 69.257812 22.222656 C 69.710938 23.3125 70.109375 24.421875 70.449219 25.550781 C 70.792969 26.679688 71.078125 27.820312 71.308594 28.976562 C 71.539062 30.132812 71.710938 31.296875 71.828125 32.472656 C 71.941406 33.644531 72 34.820312 72 36 Z M 72 36 " fill-opacity="1" fill-rule="nonzero"/><path fill="#36384e" d="M 59.179688 21.144531 C 60.132812 20.726562 60.5625 19.613281 60.144531 18.660156 C 59.722656 17.710938 58.609375 17.28125 57.660156 17.699219 L 45.875 22.945312 C 44.925781 23.363281 44.492188 24.476562 44.914062 25.425781 C 45.140625 25.945312 45.582031 26.308594 46.085938 26.460938 C 47.351562 26.859375 48.621094 27.25 49.847656 27.671875 C 51.023438 28.078125 52.121094 28.503906 53.039062 28.957031 L 53.125 29 C 54.921875 29.898438 56.296875 31.03125 57.664062 32.15625 L 57.742188 32.226562 C 58.570312 32.859375 59.757812 32.699219 60.390625 31.871094 C 61.019531 31.042969 60.859375 29.855469 60.03125 29.222656 L 60.007812 29.207031 C 58.488281 27.960938 56.953125 26.710938 54.804688 25.632812 L 54.714844 25.585938 C 53.828125 25.148438 52.875 24.753906 51.882812 24.390625 Z M 18.269531 17.636719 C 17.367188 17.125 17.050781 15.972656 17.5625 15.070312 C 18.074219 14.167969 19.226562 13.851562 20.128906 14.363281 L 31.332031 20.761719 C 32.234375 21.277344 32.546875 22.425781 32.039062 23.328125 C 31.757812 23.824219 31.285156 24.140625 30.765625 24.242188 C 29.46875 24.507812 28.167969 24.769531 26.902344 25.070312 C 25.691406 25.355469 24.554688 25.671875 23.597656 26.027344 L 23.507812 26.0625 C 21.628906 26.777344 20.148438 27.761719 18.671875 28.746094 L 18.589844 28.808594 C 17.703125 29.351562 16.539062 29.074219 15.992188 28.1875 C 15.449219 27.300781 15.726562 26.136719 16.613281 25.589844 L 16.636719 25.574219 C 18.277344 24.488281 19.929688 23.398438 22.175781 22.542969 L 22.273438 22.503906 C 23.191406 22.160156 24.183594 21.863281 25.203125 21.601562 Z M 18.269531 17.636719 " fill-opacity="1" fill-rule="nonzero"/><path fill="#7e4119" d="M 12.800781 38.398438 C 19.203125 36.265625 25.601562 34.132812 31.46875 33.335938 C 37.332031 32.53125 42.667969 33.066406 47.46875 34.136719 C 52.265625 35.199219 56.535156 36.800781 60.800781 38.398438 C 59.734375 42.667969 58.667969 46.933594 56.269531 50.933594 C 53.867188 54.933594 50.132812 58.664062 45.335938 60.53125 C 40.535156 62.398438 34.667969 62.398438 29.601562 60.53125 C 24.53125 58.664062 20.269531 54.933594 17.601562 50.933594 C 14.933594 46.933594 13.867188 42.667969 12.800781 38.398438 Z M 12.800781 38.398438 " fill-opacity="1" fill-rule="evenodd"/><path fill="#ef2945" d="M 54.015625 54.109375 C 51.753906 56.828125 48.824219 59.175781 45.335938 60.53125 C 40.535156 62.398438 34.667969 62.398438 29.601562 60.53125 C 25.796875 59.132812 22.449219 56.679688 19.886719 53.855469 C 21.882812 52.058594 24 50.457031 26.402344 49.332031 C 30.402344 47.46875 35.199219 46.933594 39.199219 47.199219 C 43.199219 47.46875 46.402344 48.53125 49.332031 50.398438 C 50.960938 51.433594 52.507812 52.71875 54.015625 54.109375 Z M 54.015625 54.109375 " fill-opacity="1" fill-rule="evenodd"/></svg>