<svg xmlns="http://www.w3.org/2000/svg" xmlns:xlink="http://www.w3.org/1999/xlink" width="96" zoomAndPan="magnify" viewBox="0 0 72 72" height="96" preserveAspectRatio="xMidYMid meet" version="1.0"><defs><clipPath id="44866a584f"><path d="M 0.324219 0 L 72 0 L 72 72 L 0.324219 72 Z M 0.324219 0 " clip-rule="nonzero"/></clipPath></defs><g clip-path="url(#44866a584f)"><path fill="#fac959" d="M 72.324219 36.054688 C 72.324219 37.234375 72.269531 38.410156 72.152344 39.585938 C 72.035156 40.757812 71.863281 41.921875 71.632812 43.082031 C 71.402344 44.238281 71.117188 45.378906 70.773438 46.507812 C 70.433594 47.636719 70.035156 48.746094 69.585938 49.835938 C 69.132812 50.925781 68.628906 51.992188 68.074219 53.03125 C 67.519531 54.070312 66.914062 55.082031 66.257812 56.0625 C 65.601562 57.042969 64.902344 57.988281 64.152344 58.902344 C 63.40625 59.8125 62.613281 60.6875 61.78125 61.519531 C 60.949219 62.355469 60.074219 63.144531 59.164062 63.894531 C 58.253906 64.640625 57.304688 65.34375 56.324219 66 C 55.34375 66.652344 54.335938 67.257812 53.296875 67.816406 C 52.257812 68.371094 51.191406 68.875 50.101562 69.328125 C 49.011719 69.777344 47.902344 70.175781 46.777344 70.515625 C 45.648438 70.859375 44.503906 71.144531 43.347656 71.375 C 42.191406 71.605469 41.027344 71.777344 39.855469 71.894531 C 38.679688 72.011719 37.503906 72.066406 36.324219 72.066406 C 35.144531 72.066406 33.96875 72.011719 32.796875 71.894531 C 31.625 71.777344 30.457031 71.605469 29.300781 71.375 C 28.144531 71.144531 27.003906 70.859375 25.875 70.515625 C 24.746094 70.175781 23.636719 69.777344 22.550781 69.328125 C 21.460938 68.875 20.394531 68.371094 19.355469 67.816406 C 18.316406 67.257812 17.304688 66.652344 16.324219 66 C 15.34375 65.34375 14.398438 64.640625 13.488281 63.894531 C 12.574219 63.144531 11.703125 62.355469 10.871094 61.519531 C 10.035156 60.6875 9.246094 59.8125 8.496094 58.902344 C 7.75 57.988281 7.046875 57.042969 6.394531 56.0625 C 5.738281 55.082031 5.132812 54.070312 4.578125 53.03125 C 4.019531 51.992188 3.515625 50.925781 3.066406 49.835938 C 2.613281 48.746094 2.21875 47.636719 1.875 46.507812 C 1.535156 45.378906 1.246094 44.238281 1.015625 43.082031 C 0.789062 41.921875 0.613281 40.757812 0.5 39.585938 C 0.382812 38.410156 0.324219 37.234375 0.324219 36.054688 C 0.324219 34.875 0.382812 33.699219 0.5 32.523438 C 0.613281 31.351562 0.789062 30.183594 1.015625 29.027344 C 1.246094 27.871094 1.535156 26.730469 1.875 25.601562 C 2.21875 24.472656 2.613281 23.363281 3.066406 22.273438 C 3.515625 21.183594 4.019531 20.117188 4.578125 19.078125 C 5.132812 18.039062 5.738281 17.027344 6.394531 16.046875 C 7.046875 15.066406 7.75 14.117188 8.496094 13.207031 C 9.246094 12.296875 10.035156 11.421875 10.871094 10.589844 C 11.703125 9.753906 12.574219 8.964844 13.488281 8.214844 C 14.398438 7.464844 15.34375 6.765625 16.324219 6.109375 C 17.304688 5.453125 18.316406 4.847656 19.355469 4.292969 C 20.394531 3.738281 21.460938 3.234375 22.550781 2.78125 C 23.636719 2.332031 24.746094 1.933594 25.875 1.589844 C 27.003906 1.25 28.144531 0.960938 29.300781 0.730469 C 30.457031 0.503906 31.625 0.328125 32.796875 0.214844 C 33.96875 0.0976562 35.144531 0.0390625 36.324219 0.0390625 C 37.503906 0.0390625 38.679688 0.0976562 39.855469 0.214844 C 41.027344 0.328125 42.191406 0.503906 43.347656 0.730469 C 44.503906 0.960938 45.648438 1.25 46.777344 1.589844 C 47.902344 1.933594 49.011719 2.332031 50.101562 2.78125 C 51.191406 3.234375 52.257812 3.738281 53.296875 4.292969 C 54.335938 4.847656 55.34375 5.453125 56.324219 6.109375 C 57.304688 6.765625 58.253906 7.464844 59.164062 8.214844 C 60.074219 8.964844 60.949219 9.753906 61.78125 10.589844 C 62.613281 11.421875 63.40625 12.296875 64.152344 13.207031 C 64.902344 14.117188 65.601562 15.066406 66.257812 16.046875 C 66.914062 17.027344 67.519531 18.039062 68.074219 19.078125 C 68.628906 20.117188 69.132812 21.183594 69.585938 22.273438 C 70.035156 23.363281 70.433594 24.472656 70.773438 25.601562 C 71.117188 26.730469 71.402344 27.871094 71.632812 29.027344 C 71.863281 30.183594 72.035156 31.351562 72.152344 32.523438 C 72.269531 33.699219 72.324219 34.875 72.324219 36.054688 Z M 72.324219 36.054688 " fill-opacity="1" fill-rule="nonzero"/></g><path fill="#cf6d05" d="M 51.214844 38.710938 C 50.191406 38.542969 49.496094 37.566406 49.667969 36.542969 C 49.839844 35.519531 50.8125 34.824219 51.835938 34.996094 C 53.480469 35.269531 55.136719 35.546875 56.648438 35.921875 C 58.289062 36.332031 59.804688 36.871094 61.054688 37.65625 C 62.363281 38.472656 63.339844 39.523438 64.140625 40.683594 C 64.90625 41.796875 65.464844 42.910156 66.015625 44.019531 C 66.476562 44.949219 66.097656 46.085938 65.167969 46.550781 C 64.234375 47.011719 63.097656 46.628906 62.636719 45.699219 C 62.125 44.675781 61.609375 43.644531 61.042969 42.824219 C 60.515625 42.058594 59.882812 41.371094 59.066406 40.859375 C 58.183594 40.3125 57.027344 39.90625 55.734375 39.582031 C 54.3125 39.230469 52.761719 38.96875 51.214844 38.710938 Z M 22.457031 42.984375 C 21.726562 43.71875 20.53125 43.722656 19.796875 42.992188 C 19.0625 42.257812 19.058594 41.0625 19.789062 40.328125 C 20.886719 39.226562 21.992188 38.125 23.179688 37.152344 C 24.449219 36.109375 25.792969 35.230469 27.277344 34.683594 C 28.753906 34.140625 30.332031 33.941406 31.953125 33.921875 C 33.464844 33.90625 34.984375 34.042969 36.496094 34.179688 C 37.53125 34.273438 38.289062 35.191406 38.199219 36.222656 C 38.105469 37.257812 37.1875 38.019531 36.15625 37.929688 C 34.738281 37.796875 33.316406 37.667969 32 37.6875 C 30.789062 37.699219 29.621094 37.839844 28.574219 38.226562 C 27.523438 38.613281 26.527344 39.269531 25.570312 40.058594 C 24.527344 40.914062 23.488281 41.949219 22.457031 42.984375 Z M 22.457031 42.984375 " fill-opacity="1" fill-rule="nonzero"/><path fill="#36384e" d="M 55.351562 44.589844 C 57.824219 45.546875 59.4375 47.324219 58.960938 48.5625 C 58.480469 49.796875 56.089844 50.023438 53.617188 49.0625 C 51.144531 48.105469 49.527344 46.324219 50.011719 45.089844 C 50.488281 43.855469 52.878906 43.628906 55.351562 44.589844 Z M 30.726562 43.257812 C 33.375 43.257812 35.523438 44.332031 35.523438 45.660156 C 35.523438 46.984375 33.375 48.058594 30.726562 48.058594 C 28.074219 48.058594 25.921875 46.984375 25.921875 45.660156 C 25.921875 44.332031 28.074219 43.257812 30.726562 43.257812 Z M 30.726562 43.257812 " fill-opacity="1" fill-rule="evenodd"/><path fill="#7e4119" d="M 30.726562 59.261719 C 32.855469 57.664062 34.992188 56.0625 37.125 55.53125 C 39.257812 54.996094 41.390625 55.527344 42.992188 56.597656 C 44.589844 57.664062 45.660156 59.261719 46.726562 60.863281 C 46.191406 61.394531 45.65625 61.929688 44.589844 61.664062 C 43.523438 61.398438 41.925781 60.332031 39.792969 60.0625 C 37.660156 59.796875 34.992188 60.332031 33.390625 60.332031 C 31.792969 60.332031 31.257812 59.796875 30.726562 59.261719 Z M 30.726562 59.261719 " fill-opacity="1" fill-rule="evenodd"/><path fill="#1b67f4" d="M 22.203125 49.050781 C 22.886719 49.097656 25.542969 56.207031 25.40625 58.242188 C 25.265625 60.273438 23.507812 61.808594 21.472656 61.667969 C 19.441406 61.53125 17.90625 59.769531 18.042969 57.738281 C 18.183594 55.703125 21.515625 49 22.203125 49.050781 Z M 60.738281 54.113281 C 61.78125 54.1875 65.816406 64.988281 65.605469 68.074219 C 65.390625 71.164062 62.71875 73.496094 59.632812 73.28125 C 56.546875 73.070312 54.214844 70.394531 54.425781 67.308594 C 54.636719 64.21875 59.695312 54.042969 60.738281 54.113281 Z M 60.738281 54.113281 " fill-opacity="1" fill-rule="evenodd"/></svg>