<svg xmlns="http://www.w3.org/2000/svg" xmlns:xlink="http://www.w3.org/1999/xlink" width="96" zoomAndPan="magnify" viewBox="0 0 72 72" height="96" preserveAspectRatio="xMidYMid meet" version="1.0"><path fill="#fac959" d="M 72 36 C 72 37.179688 71.941406 38.355469 71.828125 39.527344 C 71.710938 40.703125 71.539062 41.867188 71.308594 43.023438 C 71.078125 44.179688 70.792969 45.320312 70.449219 46.449219 C 70.109375 47.578125 69.710938 48.6875 69.257812 49.777344 C 68.808594 50.867188 68.304688 51.929688 67.75 52.96875 C 67.195312 54.011719 66.589844 55.019531 65.933594 56 C 65.277344 56.980469 64.578125 57.925781 63.828125 58.839844 C 63.082031 59.75 62.289062 60.621094 61.457031 61.457031 C 60.621094 62.289062 59.75 63.082031 58.839844 63.828125 C 57.925781 64.578125 56.980469 65.277344 56 65.933594 C 55.019531 66.589844 54.011719 67.195312 52.96875 67.75 C 51.929688 68.304688 50.867188 68.808594 49.777344 69.257812 C 48.6875 69.710938 47.578125 70.109375 46.449219 70.449219 C 45.320312 70.792969 44.179688 71.078125 43.023438 71.308594 C 41.867188 71.539062 40.703125 71.710938 39.527344 71.828125 C 38.355469 71.941406 37.179688 72 36 72 C 34.820312 72 33.644531 71.941406 32.472656 71.828125 C 31.296875 71.710938 30.132812 71.539062 28.976562 71.308594 C 27.820312 71.078125 26.679688 70.792969 25.550781 70.449219 C 24.421875 70.109375 23.3125 69.710938 22.222656 69.257812 C 21.132812 68.808594 20.070312 68.304688 19.03125 67.75 C 17.988281 67.195312 16.980469 66.589844 16 65.933594 C 15.019531 65.277344 14.074219 64.578125 13.160156 63.828125 C 12.25 63.082031 11.378906 62.289062 10.542969 61.457031 C 9.710938 60.621094 8.917969 59.75 8.171875 58.839844 C 7.421875 57.925781 6.722656 56.980469 6.066406 56 C 5.410156 55.019531 4.804688 54.011719 4.25 52.96875 C 3.695312 51.929688 3.191406 50.867188 2.742188 49.777344 C 2.289062 48.6875 1.890625 47.578125 1.550781 46.449219 C 1.207031 45.320312 0.921875 44.179688 0.691406 43.023438 C 0.460938 41.867188 0.289062 40.703125 0.171875 39.527344 C 0.0585938 38.355469 0 37.179688 0 36 C 0 34.820312 0.0585938 33.644531 0.171875 32.472656 C 0.289062 31.296875 0.460938 30.132812 0.691406 28.976562 C 0.921875 27.820312 1.207031 26.679688 1.550781 25.550781 C 1.890625 24.421875 2.289062 23.3125 2.742188 22.222656 C 3.191406 21.132812 3.695312 20.070312 4.25 19.03125 C 4.804688 17.988281 5.410156 16.980469 6.066406 16 C 6.722656 15.019531 7.421875 14.074219 8.171875 13.160156 C 8.917969 12.25 9.710938 11.378906 10.542969 10.542969 C 11.378906 9.710938 12.25 8.917969 13.160156 8.171875 C 14.074219 7.421875 15.019531 6.722656 16 6.066406 C 16.980469 5.410156 17.988281 4.804688 19.03125 4.25 C 20.070312 3.695312 21.132812 3.191406 22.222656 2.742188 C 23.3125 2.289062 24.421875 1.890625 25.550781 1.550781 C 26.679688 1.207031 27.820312 0.921875 28.976562 0.691406 C 30.132812 0.460938 31.296875 0.289062 32.472656 0.171875 C 33.644531 0.0585938 34.820312 0 36 0 C 37.179688 0 38.355469 0.0585938 39.527344 0.171875 C 40.703125 0.289062 41.867188 0.460938 43.023438 0.691406 C 44.179688 0.921875 45.320312 1.207031 46.449219 1.550781 C 47.578125 1.890625 48.6875 2.289062 49.777344 2.742188 C 50.867188 3.191406 51.929688 3.695312 52.96875 4.25 C 54.011719 4.804688 55.019531 5.410156 56 6.066406 C 56.980469 6.722656 57.925781 7.421875 58.839844 8.171875 C 59.75 8.917969 60.621094 9.710938 61.457031 10.542969 C 62.289062 11.378906 63.082031 12.25 63.828125 13.160156 C 64.578125 14.074219 65.277344 15.019531 65.933594 16 C 66.589844 16.980469 67.195312 17.988281 67.75 19.03125 C 68.304688 20.070312 68.808594 21.132812 69.257812 22.222656 C 69.710938 23.3125 70.109375 24.421875 70.449219 25.550781 C 70.792969 26.679688 71.078125 27.820312 71.308594 28.976562 C 71.539062 30.132812 71.710938 31.296875 71.828125 32.472656 C 71.941406 33.644531 72 34.820312 72 36 Z M 72 36 " fill-opacity="1" fill-rule="nonzero"/><path fill="#36384e" d="M 50.917969 11.199219 C 54.007812 11.199219 56.515625 14.78125 56.515625 19.199219 C 56.515625 23.617188 54.007812 27.199219 50.917969 27.199219 C 47.824219 27.199219 45.316406 23.617188 45.316406 19.199219 C 45.316406 14.78125 47.824219 11.199219 50.917969 11.199219 Z M 21.601562 11.199219 C 24.691406 11.199219 27.199219 14.78125 27.199219 19.199219 C 27.199219 23.617188 24.691406 27.199219 21.601562 27.199219 C 18.507812 27.199219 16 23.617188 16 19.199219 C 16 14.78125 18.507812 11.199219 21.601562 11.199219 Z M 21.601562 11.199219 " fill-opacity="1" fill-rule="evenodd"/><path fill="#cf6d05" d="M 45.164062 10.796875 C 44.5 11.601562 43.3125 11.710938 42.515625 11.046875 C 41.734375 10.394531 41.613281 9.242188 42.230469 8.449219 C 43.566406 6.691406 44.90625 4.933594 46.804688 3.9375 C 47.839844 3.390625 48.984375 3.113281 50.117188 3.113281 C 51.246094 3.113281 52.382812 3.390625 53.425781 3.933594 C 54.402344 4.445312 55.25 5.183594 56.027344 6.023438 C 56.734375 6.78125 57.375 7.621094 58.011719 8.457031 C 58.644531 9.28125 58.484375 10.464844 57.660156 11.097656 C 56.835938 11.726562 55.652344 11.570312 55.019531 10.742188 C 54.441406 9.984375 53.859375 9.21875 53.269531 8.582031 C 52.761719 8.023438 52.230469 7.554688 51.6875 7.269531 C 51.207031 7.019531 50.664062 6.890625 50.117188 6.890625 C 49.574219 6.890625 49.035156 7.015625 48.554688 7.269531 C 47.410156 7.863281 46.3125 9.300781 45.222656 10.734375 Z M 15.847656 10.796875 C 15.183594 11.601562 13.996094 11.710938 13.199219 11.046875 C 12.417969 10.394531 12.296875 9.242188 12.914062 8.449219 C 14.25 6.691406 15.589844 4.933594 17.488281 3.9375 C 18.527344 3.390625 19.667969 3.113281 20.800781 3.113281 C 21.929688 3.113281 23.070312 3.390625 24.109375 3.933594 C 25.085938 4.445312 25.933594 5.183594 26.710938 6.023438 C 27.421875 6.78125 28.058594 7.621094 28.699219 8.457031 C 29.328125 9.28125 29.171875 10.464844 28.34375 11.097656 C 27.519531 11.726562 26.335938 11.570312 25.703125 10.742188 C 25.125 9.984375 24.542969 9.21875 23.953125 8.582031 C 23.445312 8.023438 22.914062 7.554688 22.371094 7.269531 C 21.890625 7.019531 21.347656 6.890625 20.800781 6.890625 C 20.261719 6.890625 19.71875 7.015625 19.238281 7.269531 C 18.09375 7.863281 17 9.300781 15.90625 10.734375 Z M 15.847656 10.796875 " fill-opacity="1" fill-rule="nonzero"/><path fill="#7e4119" d="M 47.996094 38.398438 C 47.996094 39.34375 47.917969 40.28125 47.765625 41.210938 C 47.613281 42.136719 47.386719 43.035156 47.082031 43.910156 C 46.78125 44.785156 46.414062 45.613281 45.972656 46.398438 C 45.535156 47.1875 45.039062 47.914062 44.484375 48.582031 C 43.925781 49.25 43.320312 49.847656 42.664062 50.375 C 42.007812 50.898438 41.316406 51.34375 40.589844 51.703125 C 39.863281 52.066406 39.113281 52.339844 38.339844 52.523438 C 37.566406 52.707031 36.785156 52.800781 36 52.800781 C 35.210938 52.800781 34.429688 52.707031 33.65625 52.523438 C 32.886719 52.339844 32.132812 52.066406 31.40625 51.703125 C 30.679688 51.34375 29.988281 50.898438 29.332031 50.375 C 28.675781 49.847656 28.070312 49.25 27.515625 48.582031 C 26.957031 47.914062 26.460938 47.1875 26.023438 46.398438 C 25.585938 45.613281 25.214844 44.785156 24.914062 43.910156 C 24.613281 43.035156 24.382812 42.136719 24.230469 41.210938 C 24.078125 40.28125 24 39.34375 24 38.398438 C 24 37.453125 24.078125 36.519531 24.230469 35.589844 C 24.382812 34.664062 24.613281 33.761719 24.914062 32.890625 C 25.214844 32.015625 25.585938 31.1875 26.023438 30.398438 C 26.460938 29.613281 26.957031 28.886719 27.515625 28.21875 C 28.070312 27.550781 28.675781 26.953125 29.332031 26.425781 C 29.988281 25.902344 30.679688 25.457031 31.40625 25.097656 C 32.132812 24.734375 32.886719 24.460938 33.65625 24.277344 C 34.429688 24.09375 35.210938 24 36 24 C 36.785156 24 37.566406 24.09375 38.339844 24.277344 C 39.113281 24.460938 39.863281 24.734375 40.589844 25.097656 C 41.316406 25.457031 42.007812 25.902344 42.664062 26.425781 C 43.320312 26.953125 43.925781 27.550781 44.484375 28.21875 C 45.039062 28.886719 45.535156 29.613281 45.972656 30.398438 C 46.414062 31.1875 46.78125 32.015625 47.082031 32.890625 C 47.386719 33.761719 47.613281 34.664062 47.765625 35.589844 C 47.917969 36.519531 47.996094 37.453125 47.996094 38.398438 Z M 47.996094 38.398438 " fill-opacity="1" fill-rule="nonzero"/></svg>